<svg width="808" height="336" viewBox="0 0 808 336" fill="none" xmlns="http://www.w3.org/2000/svg">
<rect width="808" height="336" fill="#1E1E1E"/>
<g id="LogoOnBlue">
<rect width="128" height="128" transform="translate(20)" fill="#030735"/>
<g id="Logo">
<path fill-rule="evenodd" clip-rule="evenodd" d="M47 36.0117V70.5117L55.5 64.0117V46.5117L73.5 58.0117V96.0117H82V64.0117H91V96.0117H99V64.0117C105.667 64.1784 120.5 63.0117 120.5 46.5117C120.5 30.0117 107 31.0117 99 31.0117L91 31.0117V56.0117H82V31.0117L73.5 36.0117V48.0117L55.5 36.0117H47ZM112 46.5117C112 38.0117 99 38.5117 99 38.5117V56.0117C103.5 56.0117 112 55.0117 112 46.5117Z" fill="#E5E5EB"/>
<path d="M99 31.0117C107 31.0117 120.5 30.0117 120.5 46.5117C120.5 63.0117 105.667 64.1784 99 64.0117V96.0117H91V64.0117H82V96.0117H73.5V58.0117L55.5 46.5117V64.0117L47 70.5117V36.0117H55.5L73.5 48.0117V36.0117L82 31.0117V56.0117H91V31.0117M99 31.0117C91 31.0117 91 31.0117 91 31.0117M99 31.0117L91 31.0117M99 38.5117C99 38.5117 112 38.0117 112 46.5117C112 55.0117 103.5 56.0117 99 56.0117V38.5117Z" stroke="black"/>
</g>
</g>
<g id="LogoOnWhite">
<rect width="128" height="128" transform="translate(148)" fill="#E5E5EB"/>
<g id="Logo_2">
<path fill-rule="evenodd" clip-rule="evenodd" d="M175 36.0117V70.5117L183.5 64.0117V46.5117L201.5 58.0117V96.0117H210V64.0117H219V96.0117H227V64.0117C233.667 64.1784 248.5 63.0117 248.5 46.5117C248.5 30.0117 235 31.0117 227 31.0117L219 31.0117V56.0117H210V31.0117L201.5 36.0117V48.0117L183.5 36.0117H175ZM240 46.5117C240 38.0117 227 38.5117 227 38.5117V56.0117C231.5 56.0117 240 55.0117 240 46.5117Z" fill="#030735"/>
<path d="M227 31.0117C235 31.0117 248.5 30.0117 248.5 46.5117C248.5 63.0117 233.667 64.1784 227 64.0117V96.0117H219V64.0117H210V96.0117H201.5V58.0117L183.5 46.5117V64.0117L175 70.5117V36.0117H183.5L201.5 48.0117V36.0117L210 31.0117V56.0117H219V31.0117M227 31.0117C219 31.0117 219 31.0117 219 31.0117M227 31.0117L219 31.0117M227 38.5117C227 38.5117 240 38.0117 240 46.5117C240 55.0117 231.5 56.0117 227 56.0117V38.5117Z" stroke="black"/>
</g>
</g>
<g id="Color Styles" filter="url(#filter0_d_0_1)">
<rect width="800" height="200" transform="translate(4 128)" fill="white"/>
<rect id="Rectangle" x="54" y="178" width="100" height="100" fill="#121C63"/>
<rect id="Rectangle_2" x="204" y="178" width="100" height="100" fill="#E5E5EB"/>
<rect id="Rectangle_3" x="354" y="178" width="100" height="100" fill="#030735"/>
<rect id="Rectangle_4" x="504" y="178" width="100" height="100" fill="#EEFF70"/>
<rect id="Rectangle_5" x="654" y="178" width="100" height="100" fill="#CDAE23"/>
</g>
<g id="WhiteInvis">
<g id="Logo_3">
<g filter="url(#filter1_i_0_1)">
<path fill-rule="evenodd" clip-rule="evenodd" d="M303 36.0117V70.5117L311.5 64.0117V46.5117L329.5 58.0117V96.0117H338V64.0117H347V96.0117H355V64.0117C361.667 64.1784 376.5 63.0117 376.5 46.5117C376.5 30.0117 363 31.0117 355 31.0117L347 31.0117V56.0117H338V31.0117L329.5 36.0117V48.0117L311.5 36.0117H303ZM368 46.5117C368 38.0117 355 38.5117 355 38.5117V56.0117C359.5 56.0117 368 55.0117 368 46.5117Z" fill="#E5E5EB"/>
</g>
<path d="M355 31.0117C363 31.0117 376.5 30.0117 376.5 46.5117C376.5 63.0117 361.667 64.1784 355 64.0117V96.0117H347V64.0117H338V96.0117H329.5V58.0117L311.5 46.5117V64.0117L303 70.5117V36.0117H311.5L329.5 48.0117V36.0117L338 31.0117V56.0117H347V31.0117M355 31.0117C347 31.0117 347 31.0117 347 31.0117M355 31.0117L347 31.0117M355 38.5117C355 38.5117 368 38.0117 368 46.5117C368 55.0117 359.5 56.0117 355 56.0117V38.5117Z" stroke="#EEFF70"/>
</g>
</g>
<g id="BlueInvis">
<g id="Logo_4">
<path fill-rule="evenodd" clip-rule="evenodd" d="M431 36.0117V70.5117L439.5 64.0117V46.5117L457.5 58.0117V96.0117H466V64.0117H475V96.0117H483V64.0117C489.667 64.1784 504.5 63.0117 504.5 46.5117C504.5 30.0117 491 31.0117 483 31.0117L475 31.0117V56.0117H466V31.0117L457.5 36.0117V48.0117L439.5 36.0117H431ZM496 46.5117C496 38.0117 483 38.5117 483 38.5117V56.0117C487.5 56.0117 496 55.0117 496 46.5117Z" fill="#030735"/>
<path d="M483 31.0117C491 31.0117 504.5 30.0117 504.5 46.5117C504.5 63.0117 489.667 64.1784 483 64.0117V96.0117H475V64.0117H466V96.0117H457.5V58.0117L439.5 46.5117V64.0117L431 70.5117V36.0117H439.5L457.5 48.0117V36.0117L466 31.0117V56.0117H475V31.0117M483 31.0117C475 31.0117 475 31.0117 475 31.0117M483 31.0117L475 31.0117M483 38.5117C483 38.5117 496 38.0117 496 46.5117C496 55.0117 487.5 56.0117 483 56.0117V38.5117Z" stroke="#CDAE23"/>
</g>
</g>
<g id="LogoSecondary">
<rect width="128" height="128" transform="translate(532)" fill="#121C63"/>
<g id="Logo_5">
<g filter="url(#filter2_i_0_1)">
<path fill-rule="evenodd" clip-rule="evenodd" d="M559 36.0117V70.5117L567.5 64.0117V46.5117L585.5 58.0117V96.0117H594V64.0117H603V96.0117H611V64.0117C617.667 64.1784 632.5 63.0117 632.5 46.5117C632.5 30.0117 619 31.0117 611 31.0117L603 31.0117V56.0117H594V31.0117L585.5 36.0117V48.0117L567.5 36.0117H559ZM624 46.5117C624 38.0117 611 38.5117 611 38.5117V56.0117C615.5 56.0117 624 55.0117 624 46.5117Z" fill="#EEFF70"/>
</g>
<path d="M611 31.0117C619 31.0117 632.5 30.0117 632.5 46.5117C632.5 63.0117 617.667 64.1784 611 64.0117V96.0117H603V64.0117H594V96.0117H585.5V58.0117L567.5 46.5117V64.0117L559 70.5117V36.0117H567.5L585.5 48.0117V36.0117L594 31.0117V56.0117H603V31.0117M611 31.0117C603 31.0117 603 31.0117 603 31.0117M611 31.0117L603 31.0117M611 38.5117C611 38.5117 624 38.0117 624 46.5117C624 55.0117 615.5 56.0117 611 56.0117V38.5117Z" stroke="#CDAE23"/>
</g>
</g>
<g id="LogoAccent">
<rect width="128" height="128" transform="translate(660)" fill="#121C63"/>
<g id="Logo_6">
<g filter="url(#filter3_i_0_1)">
<path fill-rule="evenodd" clip-rule="evenodd" d="M687 36.0117V70.5117L695.5 64.0117V46.5117L713.5 58.0117V96.0117H722V64.0117H731V96.0117H739V64.0117C745.667 64.1784 760.5 63.0117 760.5 46.5117C760.5 30.0117 747 31.0117 739 31.0117L731 31.0117V56.0117H722V31.0117L713.5 36.0117V48.0117L695.5 36.0117H687ZM752 46.5117C752 38.0117 739 38.5117 739 38.5117V56.0117C743.5 56.0117 752 55.0117 752 46.5117Z" fill="#CDAE23"/>
</g>
<path d="M739 31.0117C747 31.0117 760.5 30.0117 760.5 46.5117C760.5 63.0117 745.667 64.1784 739 64.0117V96.0117H731V64.0117H722V96.0117H713.5V58.0117L695.5 46.5117V64.0117L687 70.5117V36.0117H695.5L713.5 48.0117V36.0117L722 31.0117V56.0117H731V31.0117M739 31.0117C731 31.0117 731 31.0117 731 31.0117M739 31.0117L731 31.0117M739 38.5117C739 38.5117 752 38.0117 752 46.5117C752 55.0117 743.5 56.0117 739 56.0117V38.5117Z" stroke="#030735"/>
</g>
</g>
<defs>
<filter id="filter0_d_0_1" x="0" y="128" width="808" height="208" filterUnits="userSpaceOnUse" color-interpolation-filters="sRGB">
<feFlood flood-opacity="0" result="BackgroundImageFix"/>
<feColorMatrix in="SourceAlpha" type="matrix" values="0 0 0 0 0 0 0 0 0 0 0 0 0 0 0 0 0 0 127 0" result="hardAlpha"/>
<feOffset dy="4"/>
<feGaussianBlur stdDeviation="2"/>
<feComposite in2="hardAlpha" operator="out"/>
<feColorMatrix type="matrix" values="0 0 0 0 0 0 0 0 0 0 0 0 0 0 0 0 0 0 0.25 0"/>
<feBlend mode="normal" in2="BackgroundImageFix" result="effect1_dropShadow_0_1"/>
<feBlend mode="normal" in="SourceGraphic" in2="effect1_dropShadow_0_1" result="shape"/>
</filter>
<filter id="filter1_i_0_1" x="302.5" y="30.1375" width="74.5" height="70.3742" filterUnits="userSpaceOnUse" color-interpolation-filters="sRGB">
<feFlood flood-opacity="0" result="BackgroundImageFix"/>
<feBlend mode="normal" in="SourceGraphic" in2="BackgroundImageFix" result="shape"/>
<feColorMatrix in="SourceAlpha" type="matrix" values="0 0 0 0 0 0 0 0 0 0 0 0 0 0 0 0 0 0 127 0" result="hardAlpha"/>
<feOffset dy="4"/>
<feGaussianBlur stdDeviation="3"/>
<feComposite in2="hardAlpha" operator="arithmetic" k2="-1" k3="1"/>
<feColorMatrix type="matrix" values="0 0 0 0 0 0 0 0 0 0 0 0 0 0 0 0 0 0 0.25 0"/>
<feBlend mode="normal" in2="shape" result="effect1_innerShadow_0_1"/>
</filter>
<filter id="filter2_i_0_1" x="558.5" y="30.1375" width="74.5" height="70.3742" filterUnits="userSpaceOnUse" color-interpolation-filters="sRGB">
<feFlood flood-opacity="0" result="BackgroundImageFix"/>
<feBlend mode="normal" in="SourceGraphic" in2="BackgroundImageFix" result="shape"/>
<feColorMatrix in="SourceAlpha" type="matrix" values="0 0 0 0 0 0 0 0 0 0 0 0 0 0 0 0 0 0 127 0" result="hardAlpha"/>
<feOffset dy="4"/>
<feGaussianBlur stdDeviation="2"/>
<feComposite in2="hardAlpha" operator="arithmetic" k2="-1" k3="1"/>
<feColorMatrix type="matrix" values="0 0 0 0 0 0 0 0 0 0 0 0 0 0 0 0 0 0 0.25 0"/>
<feBlend mode="normal" in2="shape" result="effect1_innerShadow_0_1"/>
</filter>
<filter id="filter3_i_0_1" x="686.5" y="30.1375" width="74.5" height="70.3742" filterUnits="userSpaceOnUse" color-interpolation-filters="sRGB">
<feFlood flood-opacity="0" result="BackgroundImageFix"/>
<feBlend mode="normal" in="SourceGraphic" in2="BackgroundImageFix" result="shape"/>
<feColorMatrix in="SourceAlpha" type="matrix" values="0 0 0 0 0 0 0 0 0 0 0 0 0 0 0 0 0 0 127 0" result="hardAlpha"/>
<feOffset dy="4"/>
<feGaussianBlur stdDeviation="2"/>
<feComposite in2="hardAlpha" operator="arithmetic" k2="-1" k3="1"/>
<feColorMatrix type="matrix" values="0 0 0 0 0 0 0 0 0 0 0 0 0 0 0 0 0 0 0.25 0"/>
<feBlend mode="normal" in2="shape" result="effect1_innerShadow_0_1"/>
</filter>
</defs>
</svg>
