<?xml version="1.0" encoding="utf-8"?>
<!DOCTYPE svg PUBLIC "-//W3C//DTD SVG 1.0//EN" "http://www.w3.org/TR/2001/REC-SVG-20010904/DTD/svg10.dtd">
<svg xmlns="http://www.w3.org/2000/svg" xml:space="preserve" xmlns:xlink="http://www.w3.org/1999/xlink" width="99" height="99" viewBox="0 0 99 99">
<desc></desc>
<rect width="99" height="99" fill="#ffffff" cx="0" cy="0" />
<defs>
<rect id="p" width="3" height="3" />
</defs>
<g fill="#000000">
<use x="12" y="12" xlink:href="#p" />
<use x="15" y="12" xlink:href="#p" />
<use x="18" y="12" xlink:href="#p" />
<use x="21" y="12" xlink:href="#p" />
<use x="24" y="12" xlink:href="#p" />
<use x="27" y="12" xlink:href="#p" />
<use x="30" y="12" xlink:href="#p" />
<use x="36" y="12" xlink:href="#p" />
<use x="39" y="12" xlink:href="#p" />
<use x="42" y="12" xlink:href="#p" />
<use x="48" y="12" xlink:href="#p" />
<use x="51" y="12" xlink:href="#p" />
<use x="57" y="12" xlink:href="#p" />
<use x="60" y="12" xlink:href="#p" />
<use x="66" y="12" xlink:href="#p" />
<use x="69" y="12" xlink:href="#p" />
<use x="72" y="12" xlink:href="#p" />
<use x="75" y="12" xlink:href="#p" />
<use x="78" y="12" xlink:href="#p" />
<use x="81" y="12" xlink:href="#p" />
<use x="84" y="12" xlink:href="#p" />
<use x="12" y="15" xlink:href="#p" />
<use x="30" y="15" xlink:href="#p" />
<use x="36" y="15" xlink:href="#p" />
<use x="39" y="15" xlink:href="#p" />
<use x="42" y="15" xlink:href="#p" />
<use x="51" y="15" xlink:href="#p" />
<use x="54" y="15" xlink:href="#p" />
<use x="60" y="15" xlink:href="#p" />
<use x="66" y="15" xlink:href="#p" />
<use x="84" y="15" xlink:href="#p" />
<use x="12" y="18" xlink:href="#p" />
<use x="18" y="18" xlink:href="#p" />
<use x="21" y="18" xlink:href="#p" />
<use x="24" y="18" xlink:href="#p" />
<use x="30" y="18" xlink:href="#p" />
<use x="36" y="18" xlink:href="#p" />
<use x="42" y="18" xlink:href="#p" />
<use x="45" y="18" xlink:href="#p" />
<use x="66" y="18" xlink:href="#p" />
<use x="72" y="18" xlink:href="#p" />
<use x="75" y="18" xlink:href="#p" />
<use x="78" y="18" xlink:href="#p" />
<use x="84" y="18" xlink:href="#p" />
<use x="12" y="21" xlink:href="#p" />
<use x="18" y="21" xlink:href="#p" />
<use x="21" y="21" xlink:href="#p" />
<use x="24" y="21" xlink:href="#p" />
<use x="30" y="21" xlink:href="#p" />
<use x="36" y="21" xlink:href="#p" />
<use x="39" y="21" xlink:href="#p" />
<use x="45" y="21" xlink:href="#p" />
<use x="51" y="21" xlink:href="#p" />
<use x="54" y="21" xlink:href="#p" />
<use x="60" y="21" xlink:href="#p" />
<use x="66" y="21" xlink:href="#p" />
<use x="72" y="21" xlink:href="#p" />
<use x="75" y="21" xlink:href="#p" />
<use x="78" y="21" xlink:href="#p" />
<use x="84" y="21" xlink:href="#p" />
<use x="12" y="24" xlink:href="#p" />
<use x="18" y="24" xlink:href="#p" />
<use x="21" y="24" xlink:href="#p" />
<use x="24" y="24" xlink:href="#p" />
<use x="30" y="24" xlink:href="#p" />
<use x="54" y="24" xlink:href="#p" />
<use x="57" y="24" xlink:href="#p" />
<use x="60" y="24" xlink:href="#p" />
<use x="66" y="24" xlink:href="#p" />
<use x="72" y="24" xlink:href="#p" />
<use x="75" y="24" xlink:href="#p" />
<use x="78" y="24" xlink:href="#p" />
<use x="84" y="24" xlink:href="#p" />
<use x="12" y="27" xlink:href="#p" />
<use x="30" y="27" xlink:href="#p" />
<use x="36" y="27" xlink:href="#p" />
<use x="45" y="27" xlink:href="#p" />
<use x="48" y="27" xlink:href="#p" />
<use x="51" y="27" xlink:href="#p" />
<use x="66" y="27" xlink:href="#p" />
<use x="84" y="27" xlink:href="#p" />
<use x="12" y="30" xlink:href="#p" />
<use x="15" y="30" xlink:href="#p" />
<use x="18" y="30" xlink:href="#p" />
<use x="21" y="30" xlink:href="#p" />
<use x="24" y="30" xlink:href="#p" />
<use x="27" y="30" xlink:href="#p" />
<use x="30" y="30" xlink:href="#p" />
<use x="36" y="30" xlink:href="#p" />
<use x="42" y="30" xlink:href="#p" />
<use x="48" y="30" xlink:href="#p" />
<use x="54" y="30" xlink:href="#p" />
<use x="60" y="30" xlink:href="#p" />
<use x="66" y="30" xlink:href="#p" />
<use x="69" y="30" xlink:href="#p" />
<use x="72" y="30" xlink:href="#p" />
<use x="75" y="30" xlink:href="#p" />
<use x="78" y="30" xlink:href="#p" />
<use x="81" y="30" xlink:href="#p" />
<use x="84" y="30" xlink:href="#p" />
<use x="39" y="33" xlink:href="#p" />
<use x="48" y="33" xlink:href="#p" />
<use x="12" y="36" xlink:href="#p" />
<use x="15" y="36" xlink:href="#p" />
<use x="24" y="36" xlink:href="#p" />
<use x="27" y="36" xlink:href="#p" />
<use x="30" y="36" xlink:href="#p" />
<use x="45" y="36" xlink:href="#p" />
<use x="57" y="36" xlink:href="#p" />
<use x="69" y="36" xlink:href="#p" />
<use x="75" y="36" xlink:href="#p" />
<use x="78" y="36" xlink:href="#p" />
<use x="81" y="36" xlink:href="#p" />
<use x="84" y="36" xlink:href="#p" />
<use x="15" y="39" xlink:href="#p" />
<use x="18" y="39" xlink:href="#p" />
<use x="21" y="39" xlink:href="#p" />
<use x="24" y="39" xlink:href="#p" />
<use x="27" y="39" xlink:href="#p" />
<use x="33" y="39" xlink:href="#p" />
<use x="39" y="39" xlink:href="#p" />
<use x="42" y="39" xlink:href="#p" />
<use x="48" y="39" xlink:href="#p" />
<use x="51" y="39" xlink:href="#p" />
<use x="57" y="39" xlink:href="#p" />
<use x="60" y="39" xlink:href="#p" />
<use x="63" y="39" xlink:href="#p" />
<use x="69" y="39" xlink:href="#p" />
<use x="72" y="39" xlink:href="#p" />
<use x="75" y="39" xlink:href="#p" />
<use x="81" y="39" xlink:href="#p" />
<use x="12" y="42" xlink:href="#p" />
<use x="15" y="42" xlink:href="#p" />
<use x="18" y="42" xlink:href="#p" />
<use x="21" y="42" xlink:href="#p" />
<use x="24" y="42" xlink:href="#p" />
<use x="30" y="42" xlink:href="#p" />
<use x="33" y="42" xlink:href="#p" />
<use x="45" y="42" xlink:href="#p" />
<use x="48" y="42" xlink:href="#p" />
<use x="54" y="42" xlink:href="#p" />
<use x="57" y="42" xlink:href="#p" />
<use x="63" y="42" xlink:href="#p" />
<use x="75" y="42" xlink:href="#p" />
<use x="78" y="42" xlink:href="#p" />
<use x="21" y="45" xlink:href="#p" />
<use x="27" y="45" xlink:href="#p" />
<use x="36" y="45" xlink:href="#p" />
<use x="42" y="45" xlink:href="#p" />
<use x="45" y="45" xlink:href="#p" />
<use x="54" y="45" xlink:href="#p" />
<use x="69" y="45" xlink:href="#p" />
<use x="78" y="45" xlink:href="#p" />
<use x="81" y="45" xlink:href="#p" />
<use x="12" y="48" xlink:href="#p" />
<use x="21" y="48" xlink:href="#p" />
<use x="27" y="48" xlink:href="#p" />
<use x="30" y="48" xlink:href="#p" />
<use x="42" y="48" xlink:href="#p" />
<use x="48" y="48" xlink:href="#p" />
<use x="57" y="48" xlink:href="#p" />
<use x="63" y="48" xlink:href="#p" />
<use x="66" y="48" xlink:href="#p" />
<use x="75" y="48" xlink:href="#p" />
<use x="78" y="48" xlink:href="#p" />
<use x="81" y="48" xlink:href="#p" />
<use x="84" y="48" xlink:href="#p" />
<use x="12" y="51" xlink:href="#p" />
<use x="15" y="51" xlink:href="#p" />
<use x="36" y="51" xlink:href="#p" />
<use x="39" y="51" xlink:href="#p" />
<use x="51" y="51" xlink:href="#p" />
<use x="57" y="51" xlink:href="#p" />
<use x="63" y="51" xlink:href="#p" />
<use x="72" y="51" xlink:href="#p" />
<use x="81" y="51" xlink:href="#p" />
<use x="21" y="54" xlink:href="#p" />
<use x="30" y="54" xlink:href="#p" />
<use x="36" y="54" xlink:href="#p" />
<use x="51" y="54" xlink:href="#p" />
<use x="57" y="54" xlink:href="#p" />
<use x="63" y="54" xlink:href="#p" />
<use x="69" y="54" xlink:href="#p" />
<use x="72" y="54" xlink:href="#p" />
<use x="75" y="54" xlink:href="#p" />
<use x="78" y="54" xlink:href="#p" />
<use x="18" y="57" xlink:href="#p" />
<use x="21" y="57" xlink:href="#p" />
<use x="27" y="57" xlink:href="#p" />
<use x="36" y="57" xlink:href="#p" />
<use x="42" y="57" xlink:href="#p" />
<use x="48" y="57" xlink:href="#p" />
<use x="54" y="57" xlink:href="#p" />
<use x="57" y="57" xlink:href="#p" />
<use x="63" y="57" xlink:href="#p" />
<use x="69" y="57" xlink:href="#p" />
<use x="72" y="57" xlink:href="#p" />
<use x="78" y="57" xlink:href="#p" />
<use x="81" y="57" xlink:href="#p" />
<use x="12" y="60" xlink:href="#p" />
<use x="15" y="60" xlink:href="#p" />
<use x="18" y="60" xlink:href="#p" />
<use x="30" y="60" xlink:href="#p" />
<use x="33" y="60" xlink:href="#p" />
<use x="36" y="60" xlink:href="#p" />
<use x="39" y="60" xlink:href="#p" />
<use x="45" y="60" xlink:href="#p" />
<use x="51" y="60" xlink:href="#p" />
<use x="54" y="60" xlink:href="#p" />
<use x="60" y="60" xlink:href="#p" />
<use x="63" y="60" xlink:href="#p" />
<use x="66" y="60" xlink:href="#p" />
<use x="69" y="60" xlink:href="#p" />
<use x="72" y="60" xlink:href="#p" />
<use x="75" y="60" xlink:href="#p" />
<use x="78" y="60" xlink:href="#p" />
<use x="36" y="63" xlink:href="#p" />
<use x="39" y="63" xlink:href="#p" />
<use x="42" y="63" xlink:href="#p" />
<use x="48" y="63" xlink:href="#p" />
<use x="54" y="63" xlink:href="#p" />
<use x="60" y="63" xlink:href="#p" />
<use x="72" y="63" xlink:href="#p" />
<use x="12" y="66" xlink:href="#p" />
<use x="15" y="66" xlink:href="#p" />
<use x="18" y="66" xlink:href="#p" />
<use x="21" y="66" xlink:href="#p" />
<use x="24" y="66" xlink:href="#p" />
<use x="27" y="66" xlink:href="#p" />
<use x="30" y="66" xlink:href="#p" />
<use x="45" y="66" xlink:href="#p" />
<use x="48" y="66" xlink:href="#p" />
<use x="51" y="66" xlink:href="#p" />
<use x="54" y="66" xlink:href="#p" />
<use x="60" y="66" xlink:href="#p" />
<use x="66" y="66" xlink:href="#p" />
<use x="72" y="66" xlink:href="#p" />
<use x="12" y="69" xlink:href="#p" />
<use x="30" y="69" xlink:href="#p" />
<use x="36" y="69" xlink:href="#p" />
<use x="39" y="69" xlink:href="#p" />
<use x="45" y="69" xlink:href="#p" />
<use x="51" y="69" xlink:href="#p" />
<use x="60" y="69" xlink:href="#p" />
<use x="72" y="69" xlink:href="#p" />
<use x="75" y="69" xlink:href="#p" />
<use x="78" y="69" xlink:href="#p" />
<use x="12" y="72" xlink:href="#p" />
<use x="18" y="72" xlink:href="#p" />
<use x="21" y="72" xlink:href="#p" />
<use x="24" y="72" xlink:href="#p" />
<use x="30" y="72" xlink:href="#p" />
<use x="36" y="72" xlink:href="#p" />
<use x="48" y="72" xlink:href="#p" />
<use x="51" y="72" xlink:href="#p" />
<use x="60" y="72" xlink:href="#p" />
<use x="63" y="72" xlink:href="#p" />
<use x="66" y="72" xlink:href="#p" />
<use x="69" y="72" xlink:href="#p" />
<use x="72" y="72" xlink:href="#p" />
<use x="75" y="72" xlink:href="#p" />
<use x="78" y="72" xlink:href="#p" />
<use x="81" y="72" xlink:href="#p" />
<use x="84" y="72" xlink:href="#p" />
<use x="12" y="75" xlink:href="#p" />
<use x="18" y="75" xlink:href="#p" />
<use x="21" y="75" xlink:href="#p" />
<use x="24" y="75" xlink:href="#p" />
<use x="30" y="75" xlink:href="#p" />
<use x="39" y="75" xlink:href="#p" />
<use x="42" y="75" xlink:href="#p" />
<use x="51" y="75" xlink:href="#p" />
<use x="54" y="75" xlink:href="#p" />
<use x="66" y="75" xlink:href="#p" />
<use x="69" y="75" xlink:href="#p" />
<use x="78" y="75" xlink:href="#p" />
<use x="81" y="75" xlink:href="#p" />
<use x="84" y="75" xlink:href="#p" />
<use x="12" y="78" xlink:href="#p" />
<use x="18" y="78" xlink:href="#p" />
<use x="21" y="78" xlink:href="#p" />
<use x="24" y="78" xlink:href="#p" />
<use x="30" y="78" xlink:href="#p" />
<use x="39" y="78" xlink:href="#p" />
<use x="42" y="78" xlink:href="#p" />
<use x="60" y="78" xlink:href="#p" />
<use x="63" y="78" xlink:href="#p" />
<use x="66" y="78" xlink:href="#p" />
<use x="75" y="78" xlink:href="#p" />
<use x="81" y="78" xlink:href="#p" />
<use x="12" y="81" xlink:href="#p" />
<use x="30" y="81" xlink:href="#p" />
<use x="36" y="81" xlink:href="#p" />
<use x="48" y="81" xlink:href="#p" />
<use x="54" y="81" xlink:href="#p" />
<use x="57" y="81" xlink:href="#p" />
<use x="66" y="81" xlink:href="#p" />
<use x="69" y="81" xlink:href="#p" />
<use x="72" y="81" xlink:href="#p" />
<use x="75" y="81" xlink:href="#p" />
<use x="78" y="81" xlink:href="#p" />
<use x="81" y="81" xlink:href="#p" />
<use x="12" y="84" xlink:href="#p" />
<use x="15" y="84" xlink:href="#p" />
<use x="18" y="84" xlink:href="#p" />
<use x="21" y="84" xlink:href="#p" />
<use x="24" y="84" xlink:href="#p" />
<use x="27" y="84" xlink:href="#p" />
<use x="30" y="84" xlink:href="#p" />
<use x="36" y="84" xlink:href="#p" />
<use x="42" y="84" xlink:href="#p" />
<use x="45" y="84" xlink:href="#p" />
<use x="51" y="84" xlink:href="#p" />
<use x="54" y="84" xlink:href="#p" />
<use x="57" y="84" xlink:href="#p" />
<use x="78" y="84" xlink:href="#p" />
<use x="81" y="84" xlink:href="#p" />
<use x="84" y="84" xlink:href="#p" />
</g>
</svg>