<svg width="128" height="128" viewBox="0 0 128 128" fill="none" xmlns="http://www.w3.org/2000/svg">
<g id="LogoSecondary">
<rect width="128" height="128" fill="#121C63"/>
<g id="Logo">
<g filter="url(#filter0_i_7_31)">
<path fill-rule="evenodd" clip-rule="evenodd" d="M27 36.0117V70.5117L35.5 64.0117V46.5117L53.5 58.0117V96.0117H62V64.0117H71V96.0117H79V64.0117C85.6667 64.1784 100.5 63.0117 100.5 46.5117C100.5 30.0117 87 31.0117 79 31.0117L71 31.0117V56.0117H62V31.0117L53.5 36.0117V48.0117L35.5 36.0117H27ZM92 46.5117C92 38.0117 79 38.5117 79 38.5117V56.0117C83.5 56.0117 92 55.0117 92 46.5117Z" fill="#EEFF70"/>
</g>
<path d="M79 31.0117C87 31.0117 100.5 30.0117 100.5 46.5117C100.5 63.0117 85.6667 64.1784 79 64.0117V96.0117H71V64.0117H62V96.0117H53.5V58.0117L35.5 46.5117V64.0117L27 70.5117V36.0117H35.5L53.5 48.0117V36.0117L62 31.0117V56.0117H71V31.0117M79 31.0117C71 31.0117 71 31.0117 71 31.0117M79 31.0117L71 31.0117M79 38.5117C79 38.5117 92 38.0117 92 46.5117C92 55.0117 83.5 56.0117 79 56.0117V38.5117Z" stroke="#CDAE23"/>
</g>
</g>
<defs>
<filter id="filter0_i_7_31" x="26.5" y="30.1375" width="74.5" height="70.3742" filterUnits="userSpaceOnUse" color-interpolation-filters="sRGB">
<feFlood flood-opacity="0" result="BackgroundImageFix"/>
<feBlend mode="normal" in="SourceGraphic" in2="BackgroundImageFix" result="shape"/>
<feColorMatrix in="SourceAlpha" type="matrix" values="0 0 0 0 0 0 0 0 0 0 0 0 0 0 0 0 0 0 127 0" result="hardAlpha"/>
<feOffset dy="4"/>
<feGaussianBlur stdDeviation="2"/>
<feComposite in2="hardAlpha" operator="arithmetic" k2="-1" k3="1"/>
<feColorMatrix type="matrix" values="0 0 0 0 0 0 0 0 0 0 0 0 0 0 0 0 0 0 0.25 0"/>
<feBlend mode="normal" in2="shape" result="effect1_innerShadow_7_31"/>
</filter>
</defs>
</svg>
